<svg version="1.2" xmlns="http://www.w3.org/2000/svg" viewBox="0 0 170 150" width="32" height="32">
	<title>COMPLEXCBLANCA-svg</title>
	<style>
		tspan { white-space:pre } 
		.s0 { fill: #0071bc } 
		.s1 { fill: #29abe2 } 
	</style>
	<g id="Capa_1-2">
		<g id="Layer">
			<g id="Layer">
				<path id="Layer" class="s0" d="m112.6 37.4v13.2l-60.3-15.8v-15.7l0.1-0.1 60.2 18.4z"/>
				<path id="Layer" class="s1" d="m52.3 19.1v15.7l-46.7 12.3v-13.8l46.7-14.2z"/>
				<path id="Layer" class="s1" d="m52.3 50.9v15.9l-46.7 8.1v-13.9l46.7-10.1z"/>
				<path id="Layer" class="s0" d="m84.9 57.9v14.6l-32.6-5.7v-15.9l0.3-0.1 32.3 7.1z"/>
				<path id="Layer" class="s0" d="m84.9 87v14.5l-32.6-2.8v-16l32.6 4.3z"/>
				<path id="Layer" class="s1" d="m52.3 82.7v16l-46.7 4v-13.9l46.7-6.1z"/>
				<path id="Layer" class="s1" d="m52.3 114.6v15.7h-46.7v-13.6l46.7-2.1z"/>
				<path id="Layer" class="s0" d="m84.9 116.1v14.2h-32.6v-15.7l32.6 1.5z"/>
				<path id="Layer" class="s0" d="m166.3 62.5v9.7l-44-11.5v-11.6h0.2l43.8 13.4z"/>
				<path id="Layer" class="s1" d="m122.3 49.1v11.6l-34 8.9v-10.1l34-10.4z"/>
				<path id="Layer" class="s1" d="m122.3 72.3v11.6l-34 6v-10.1l34-7.5z"/>
				<path id="Layer" class="s0" d="m166.3 81.8v9.8l-44-7.7v-11.6h0.3l43.7 9.5z"/>
				<path id="Layer" class="s0" d="m166.3 101.3v9.8l-44-3.9v-11.6l44 5.7z"/>
				<path id="Layer" class="s1" d="m122.3 95.6v11.6l-34 3v-10.1l34-4.5z"/>
				<path id="Layer" class="s1" d="m122.3 118.9v11.4h-34v-10l34-1.4z"/>
				<path id="Layer" class="s0" d="m166.3 120.8v9.5h-44v-11.4l44 1.9z"/>
			</g>
		</g>
	</g>
</svg>